<svg t="1672725741639" class="icon" viewBox="0 0 1024 1024" version="1.1"
  xmlns="http://www.w3.org/2000/svg" p-id="4708" xmlns:xlink="http://www.w3.org/1999/xlink"
  width="128" height="128">
  <path
    d="M893.23 517.17c-15.27-10.82-36.44-7.19-47.24 8.09l-97.22 137.42a371.122 371.122 0 0 0-34.62-31.28c-27.46-21.84-57.59-39.59-89.79-52.91a245.07 245.07 0 0 0 38.58-31.46c45.72-45.71 70.9-106.5 70.9-171.14 0-64.65-25.18-125.44-70.9-171.14-45.71-45.72-106.5-70.9-171.14-70.9-64.65 0-125.44 25.18-171.14 70.9-45.72 45.71-70.9 106.5-70.9 171.14 0 64.65 25.18 125.44 70.9 171.14a243.93 243.93 0 0 0 30.89 26.17c-37.3 13.76-72.03 33.32-103.29 58.2-64.83 51.58-111.29 124.06-130.83 204.11-4.44 18.19 6.71 36.53 24.89 40.97 18.19 4.43 36.53-6.71 40.97-24.89 15.98-65.52 54.04-124.88 107.16-167.13 26.56-21.13 56.15-37.57 87.96-48.9 32.91-11.7 67.5-17.64 102.79-17.64s69.88 5.93 102.79 17.64c31.81 11.32 61.41 27.76 87.96 48.9a305.702 305.702 0 0 1 36.86 34.69l-83.15 117.54a33.904 33.904 0 0 0-2.44 35.16 33.906 33.906 0 0 0 30.1 18.31h165.24c18.72 0 33.9-15.18 33.9-33.9 0-8.15-2.87-15.62-7.67-21.47-10.3-41.83-27.95-81.58-51.73-117.35l108.26-153.02c10.82-15.29 7.2-36.45-8.09-47.25z m-401.44 32.96c-96.09 0-174.25-78.16-174.25-174.25s78.16-174.25 174.25-174.25 174.25 78.16 174.25 174.25-78.16 174.25-174.25 174.25z m278.6 272.23h-51.55l31.57-44.62a306.877 306.877 0 0 1 19.98 44.62z"
    p-id="4709"></path>
  <path
    d="M483.85 877.44c-6.43 0-12.59-2.66-17-7.37l-52.45-55.98a23.303 23.303 0 0 1-4.51-24.88L462.33 663a23.319 23.319 0 0 1 21.52-14.36h0.43c9.57 0.17 18.06 6.18 21.41 15.14L552.84 790a23.29 23.29 0 0 1-4.01 23.17l-47.16 55.98a23.287 23.287 0 0 1-17.21 8.28c-0.2 0.01-0.41 0.01-0.61 0.01z m-25.16-84.23l24.23 25.86 21.49-25.51-21.71-58.12-24.01 57.77z"
    p-id="4710"></path>
</svg>